<?xml version="1.0" encoding="UTF-8" standalone="no"?> <!-- Created with Vectornator for iOS (http://vectornator.io/) --><!DOCTYPE svg PUBLIC "-//W3C//DTD SVG 1.1//EN" "http://www.w3.org/Graphics/SVG/1.1/DTD/svg11.dtd">
<svg style="fill-rule:evenodd;clip-rule:evenodd;stroke-linecap:round;stroke-linejoin:round;" xmlns:vectornator="http://vectornator.io" xmlns:xlink="http://www.w3.org/1999/xlink" xmlns="http://www.w3.org/2000/svg" xml:space="preserve" version="1.1" viewBox="0 0 450 70">
<metadata>
<vectornator:setting key="DimensionsVisible" value="1"/>
<vectornator:setting key="SnapToGrid" value="1"/>
<vectornator:setting key="SnapToPoints" value="1"/>
<vectornator:setting key="GuidesVisible" value="1"/>
<vectornator:setting key="RulersVisible" value="1"/>
<vectornator:setting key="SnapToEdges" value="1"/>
<vectornator:setting key="DisplayWhiteBackground" value="0"/>
<vectornator:setting key="SnapToGuides" value="1"/>
<vectornator:setting key="GridSpacing" value="36"/>
<vectornator:setting key="Units" value="Pixels"/>
<vectornator:setting key="DynamicGuides" value="1"/>
<vectornator:setting key="New" value="1"/>
</metadata>
<defs/>
<g id="Layer 1" vectornator:layerName="Layer 1">
<path d="M0+0L450+0L450+70L0+70L0+0Z" opacity="1" fill="#000000"/>
<g opacity="1">
<path d="M31.0038+60.7213L31.0038+13.2193L40.7694+13.2193L40.7694+31.3307L59.212+31.3307L59.212+13.2193L69.0096+13.2193L69.0096+60.7213L59.212+60.7213L59.212+39.5162L40.7694+39.5162L40.7694+60.7213L31.0038+60.7213Z" opacity="1" fill="#ffffff"/>
<path d="M96.9296+43.6412C96.3533+44.0064+95.7716+44.3019+95.1846+44.5274C94.5976+44.753+93.7918+44.9625+92.7672+45.1559L90.718+45.5426C88.7969+45.8863+87.4201+46.3053+86.5877+46.7994C85.1789+47.6373+84.4745+48.9371+84.4745+50.6988C84.4745+52.2672+84.9067+53.4005+85.7712+54.0987C86.6357+54.797+87.687+55.1461+88.925+55.1461C90.8888+55.1461+92.6978+54.566+94.3521+53.4059C96.0064+52.2457+96.8656+50.1295+96.9296+47.0572L96.9296+43.6412ZM91.3904+39.3551C93.0767+39.1402+94.2827+38.8717+95.0085+38.5494C96.3106+37.9908+96.9616+37.1207+96.9616+35.9391C96.9616+34.4996+96.4653+33.506+95.4728+32.9581C94.4802+32.4103+93.0234+32.1363+91.1023+32.1363C88.9464+32.1363+87.4201+32.6734+86.5236+33.7477C85.8833+34.5426+85.4564+35.6168+85.2429+36.9703L76.4379+36.9703C76.63+33.898+77.4838+31.3736+78.9993+29.3971C81.4114+26.3033+85.5524+24.7564+91.4224+24.7564C95.2433+24.7564+98.6372+25.5191+101.604+27.0445C104.571+28.5699+106.055+31.4488+106.055+35.6812L106.055+51.7945C106.055+52.9117+106.076+54.2652+106.119+55.8551C106.183+57.0582+106.364+57.8746+106.663+58.3043C106.962+58.734+107.41+59.0885+108.008+59.3678L108.008+60.7213L98.0823+60.7213C97.8048+60.0123+97.6127+59.3463+97.5059+58.7232C97.3992+58.1002+97.3138+57.3912+97.2498+56.5963C95.9904+57.9713+94.5389+59.1422+92.8953+60.109C90.9315+61.2477+88.7116+61.817+86.2355+61.817C83.0763+61.817+80.4668+60.9093+78.407+59.0938C76.3471+57.2784+75.3172+54.7057+75.3172+51.3756C75.3172+47.0572+76.9715+43.9313+80.2801+41.9977C82.0944+40.9449+84.7626+40.193+88.2846+39.7418L91.3904+39.3551Z" opacity="1" fill="#ffffff"/>
<path d="M134.999+38.1949C134.829+36.8844+134.391+35.7027+133.687+34.65C132.662+33.232+131.072+32.523+128.916+32.523C125.842+32.523+123.74+34.0592+122.608+37.1314C122.011+38.7643+121.712+40.9342+121.712+43.6412C121.712+46.2193+122.011+48.2926+122.608+49.8609C123.697+52.7828+125.746+54.2437+128.756+54.2437C130.89+54.2437+132.406+53.6637+133.302+52.5035C134.199+51.3434+134.743+49.8395+134.935+47.9918L144.253+47.9918C144.039+50.7848+143.036+53.4273+141.243+55.9195C138.383+59.9371+134.146+61.9459+128.532+61.9459C122.918+61.9459+118.787+60.2701+116.141+56.9186C113.494+53.567+112.17+49.2164+112.17+43.8668C112.17+37.8297+113.632+33.1354+116.557+29.7838C119.481+26.4322+123.515+24.7564+128.66+24.7564C133.036+24.7564+136.616+25.7447+139.402+27.7213C142.188+29.6979+143.836+33.1891+144.349+38.1949L134.999+38.1949Z" opacity="1" fill="#ffffff"/>
<path d="M150.528+13.3805L159.493+13.3805L159.493+38.9684L170.86+25.7555L182.162+25.7555L169.963+39.1939L182.643+60.7213L171.628+60.7213L163.272+45.7037L159.493+49.6676L159.493+60.7213L150.528+60.7213L150.528+13.3805Z" opacity="1" fill="#ffffff"/>
<path d="M187.67+13.2193L198.012+13.2193L216.806+46.3805L216.806+13.2193L225.996+13.2193L225.996+60.7213L216.134+60.7213L196.859+26.9801L196.859+60.7213L187.67+60.7213L187.67+13.2193Z" opacity="1" fill="#ffffff"/>
<path d="M262.112+13.2193L273.287+13.2193L257.502+42.8678L257.502+60.7213L247.64+60.7213L247.64+42.8678L231.311+13.2193L242.933+13.2193L252.731+33.9088L262.112+13.2193Z" opacity="1" fill="#ffffff"/>
</g>
</g>
<g id="Layer 2" vectornator:layerName="Layer 2">
<path d="M410+52C410+43.1634+417.163+36+426+36C434.837+36+442+43.1634+442+52C442+60.8366+434.837+68+426+68C417.163+68+410+60.8366+410+52Z" opacity="1" fill="#ee352e"/>
<path d="M376+52C376+43.1634+383.163+36+392+36C400.837+36+408+43.1634+408+52C408+60.8366+400.837+68+392+68C383.163+68+376+60.8366+376+52Z" opacity="1" fill="#ee352e"/>
<path d="M342+52C342+43.1634+349.163+36+358+36C366.837+36+374+43.1634+374+52C374+60.8366+366.837+68+358+68C349.163+68+342+60.8366+342+52Z" opacity="1" fill="#fccc0a"/>
<path d="M308+52C308+43.1634+315.163+36+324+36C332.837+36+340+43.1634+340+52C340+60.8366+332.837+68+324+68C315.163+68+308+60.8366+308+52Z" opacity="1" fill="#ee352e"/>
<path d="M410+18C410+9.16344+417.163+2+426+2C434.837+2+442+9.16344+442+18C442+26.8366+434.837+34+426+34C417.163+34+410+26.8366+410+18Z" opacity="1" fill="#c60c30"/>
<path d="M376+18C376+9.16344+383.163+2+392+2C400.837+2+408+9.16344+408+18C408+26.8366+400.837+34+392+34C383.163+34+376+26.8366+376+18Z" opacity="1" fill="#0039a6"/>
<path d="M342+18C342+9.16344+349.163+2+358+2C366.837+2+374+9.16344+374+18C374+26.8366+366.837+34+358+34C349.163+34+342+26.8366+342+18Z" opacity="1" fill="#ff6319"/>
<path d="M308+18C308+9.16344+315.163+2+324+2C332.837+2+340+9.16344+340+18C340+26.8366+332.837+34+324+34C315.163+34+308+26.8366+308+18Z" opacity="1" fill="#000000"/>
</g>
<g id="Layer 3" vectornator:layerName="Layer 3">
<g opacity="1">
<path d="M420.61+47.6691L420.61+45.1088C421.745+45.056+422.539+44.9769+422.993+44.8713C423.716+44.7041+424.304+44.3698+424.758+43.8683C425.069+43.5251+425.304+43.0676+425.464+42.4957C425.557+42.1526+425.603+41.8975+425.603+41.7303L428.591+41.7303L428.591+60.8665L424.909+60.8665L424.909+47.6691L420.61+47.6691Z" opacity="1" fill="#ffffff"/>
</g>
<g opacity="1">
<path d="M386.472+57.1052C386.984+55.8295+388.195+54.479+390.103+53.0536C391.758+51.8131+392.83+50.9245+393.318+50.3878C394.066+49.5519+394.44+48.6369+394.44+47.6427C394.44+46.8333+394.225+46.1602+393.797+45.6235C393.368+45.0868+392.754+44.8185+391.956+44.8185C390.863+44.8185+390.119+45.2452+389.724+46.0986C389.497+46.5913+389.363+47.3744+389.321+48.4478L385.829+48.4478C385.887+46.8201+386.169+45.5047+386.673+44.5017C387.631+42.5925+389.333+41.6379+391.779+41.6379C393.713+41.6379+395.251+42.1988+396.394+43.3206C397.537+44.4424+398.108+45.9271+398.108+47.7747C398.108+49.1912+397.705+50.4494+396.898+51.5491C396.369+52.2794+395.499+53.0932+394.288+53.9907L392.851+55.0596C391.952+55.7283+391.336+56.2122+391.004+56.5114C390.672+56.8105+390.393+57.158+390.166+57.554L398.146+57.554L398.146+60.8665L385.627+60.8665C385.66+59.494+385.942+58.2402+386.472+57.1052Z" opacity="1" fill="#ffffff"/>
</g>
<g opacity="1">
<path d="M357.931+58.2798C358.998+58.2798+359.698+57.6969+360.03+56.5312C360.362+55.3654+360.528+53.6827+360.528+51.4832C360.528+49.178+360.362+47.4712+360.03+46.3626C359.698+45.254+358.998+44.6997+357.931+44.6997C356.863+44.6997+356.157+45.254+355.813+46.3626C355.468+47.4712+355.296+49.178+355.296+51.4832C355.296+53.6827+355.468+55.3654+355.813+56.5312C356.157+57.6969+356.863+58.2798+357.931+58.2798ZM364.235+51.4832C364.235+54.6417+363.766+57.0744+362.829+58.7813C361.892+60.4882+360.259+61.3416+357.931+61.3416C355.602+61.3416+353.97+60.4882+353.033+58.7813C352.095+57.0744+351.627+54.6417+351.627+51.4832C351.627+48.3246+352.095+45.8875+353.033+44.1718C353.97+42.4562+355.602+41.5983+357.931+41.5983C360.259+41.5983+361.892+42.4562+362.829+44.1718C363.766+45.8875+364.235+48.3246+364.235+51.4832Z" opacity="1" fill="#ffffff"/>
</g>
<g opacity="1">
<path d="M318.472+57.1052C318.984+55.8295+320.195+54.479+322.103+53.0536C323.758+51.8131+324.83+50.9245+325.318+50.3878C326.066+49.5519+326.44+48.6369+326.44+47.6427C326.44+46.8333+326.225+46.1602+325.797+45.6235C325.368+45.0868+324.754+44.8185+323.956+44.8185C322.863+44.8185+322.119+45.2452+321.724+46.0986C321.497+46.5913+321.363+47.3744+321.321+48.4478L317.829+48.4478C317.887+46.8201+318.169+45.5047+318.673+44.5017C319.631+42.5925+321.333+41.6379+323.779+41.6379C325.713+41.6379+327.251+42.1988+328.394+43.3206C329.537+44.4424+330.108+45.9271+330.108+47.7747C330.108+49.1912+329.705+50.4494+328.898+51.5491C328.369+52.2794+327.499+53.0932+326.288+53.9907L324.851+55.0596C323.952+55.7283+323.336+56.2122+323.004+56.5114C322.672+56.8105+322.393+57.158+322.166+57.554L330.146+57.554L330.146+60.8665L317.627+60.8665C317.66+59.494+317.942+58.2402+318.472+57.1052Z" opacity="1" fill="#ffffff"/>
</g>
<g opacity="1">
<path d="M429.959+7.41356L434.359+7.41356L428.143+19.5551L428.143+26.8665L424.26+26.8665L424.26+19.5551L417.83+7.41356L422.407+7.41356L426.265+15.8863L429.959+7.41356Z" opacity="1" fill="#ffffff"/>
</g>
<g opacity="1">
<path d="M389.724+19.5156L394.44+19.5156L392.12+11.8611L389.724+19.5156ZM389.964+7.41356L394.351+7.41356L400.933+26.8665L396.722+26.8665L395.524+22.8677L388.678+22.8677L387.392+26.8665L383.332+26.8665L389.964+7.41356Z" opacity="1" fill="#ffffff"/>
</g>
<g opacity="1">
<path d="M361.53+7.41356L367.115+7.41356L367.115+26.8665L363.497+26.8665L363.497+13.7087C363.497+13.3304+363.501+12.8003+363.51+12.1184C363.518+11.4366+363.522+10.9109+363.522+10.5413L360.005+26.8665L356.235+26.8665L352.743+10.5413C352.743+10.9109+352.747+11.4366+352.755+12.1184C352.764+12.8003+352.768+13.3304+352.768+13.7087L352.768+26.8665L349.149+26.8665L349.149+7.41356L354.798+7.41356L358.177+22.7093L361.53+7.41356Z" opacity="1" fill="#ffffff"/>
</g>
<g opacity="1"/>
</g>
</svg>
