<?xml version="1.0" encoding="UTF-8" standalone="no"?> <!-- Created with Vectornator for iOS (http://vectornator.io/) --><!DOCTYPE svg PUBLIC "-//W3C//DTD SVG 1.1//EN" "http://www.w3.org/Graphics/SVG/1.1/DTD/svg11.dtd">
<svg style="fill-rule:evenodd;clip-rule:evenodd;stroke-linecap:round;stroke-linejoin:round;" xmlns:vectornator="http://vectornator.io" xmlns:xlink="http://www.w3.org/1999/xlink" xmlns="http://www.w3.org/2000/svg" xml:space="preserve" version="1.1" viewBox="0 0 450 70">
<metadata>
<vectornator:setting key="DimensionsVisible" value="1"/>
<vectornator:setting key="New" value="1"/>
<vectornator:setting key="SnapToPoints" value="1"/>
<vectornator:setting key="GuidesVisible" value="1"/>
<vectornator:setting key="RulersVisible" value="1"/>
<vectornator:setting key="CMYKEnabledKey" value="0"/>
<vectornator:setting key="SnapToEdges" value="1"/>
<vectornator:setting key="DisplayWhiteBackground" value="0"/>
<vectornator:setting key="SnapToGuides" value="1"/>
<vectornator:setting key="GridSpacing" value="36"/>
<vectornator:setting key="Units" value="Pixels"/>
<vectornator:setting key="DynamicGuides" value="1"/>
<vectornator:setting key="SnapToGrid" value="1"/>
</metadata>
<defs/>
<g id="Layer 1" vectornator:layerName="Layer 1">
<path d="M0+0L450+0L450+70L0+70L0+0Z" opacity="1" fill="#000000"/>
<g opacity="1">
<path d="M7.63431+53.761L7.63431+15.6155L15.4764+15.6155L15.4764+30.1595L30.2863+30.1595L30.2863+15.6155L38.1541+15.6155L38.1541+53.761L30.2863+53.761L30.2863+36.7327L15.4764+36.7327L15.4764+53.761L7.63431+53.761Z" opacity="1" fill="#ffffff"/>
<path d="M60.5747+40.0452C60.1119+40.3385+59.6448+40.5757+59.1734+40.7569C58.702+40.938+58.055+41.1062+57.2322+41.2615L55.5866+41.5721C54.0439+41.8481+52.9383+42.1845+52.2698+42.5813C51.1385+43.2542+50.5729+44.298+50.5729+45.7127C50.5729+46.9721+50.92+47.8822+51.6142+48.4429C52.3084+49.0036+53.1526+49.284+54.1468+49.284C55.7238+49.284+57.1765+48.8182+58.5049+47.8865C59.8334+46.9549+60.5233+45.2555+60.5747+42.7884L60.5747+40.0452ZM56.1266+36.6033C57.4807+36.4308+58.4492+36.2151+59.032+35.9563C60.0776+35.5078+60.6004+34.809+60.6004+33.8602C60.6004+32.7042+60.2019+31.9063+59.4048+31.4664C58.6078+31.0264+57.4379+30.8064+55.8952+30.8064C54.1639+30.8064+52.9383+31.2378+52.2184+32.1004C51.7042+32.7387+51.3613+33.6014+51.1899+34.6883L44.1192+34.6883C44.2735+32.2212+44.9591+30.194+46.1762+28.6067C48.1131+26.1224+51.4385+24.8802+56.1523+24.8802C59.2206+24.8802+61.946+25.4926+64.3286+26.7176C66.7112+27.9425+67.9025+30.2544+67.9025+33.6531L67.9025+46.5926C67.9025+47.4897+67.9197+48.5766+67.954+49.8533C68.0054+50.8195+68.1511+51.4751+68.3911+51.8201C68.631+52.1652+68.991+52.4498+69.471+52.6741L69.471+53.761L61.5003+53.761C61.2775+53.1917+61.1232+52.6569+61.0375+52.1565C60.9518+51.6562+60.8832+51.0869+60.8318+50.4485C59.8205+51.5527+58.6549+52.493+57.335+53.2693C55.758+54.1837+53.9754+54.6409+51.987+54.6409C49.4501+54.6409+47.3546+53.912+45.7005+52.4542C44.0464+50.9963+43.2193+48.9303+43.2193+46.2562C43.2193+42.7884+44.5477+40.2781+47.2046+38.7254C48.6616+37.88+50.8043+37.2762+53.6325+36.9139L56.1266+36.6033Z" opacity="1" fill="#ffffff"/>
<path d="M91.1459+35.6717C91.0088+34.6193+90.6574+33.6704+90.0917+32.825C89.269+31.6863+87.9919+31.117+86.2607+31.117C83.7924+31.117+82.104+32.3506+81.1955+34.8177C80.7155+36.1289+80.4756+37.8714+80.4756+40.0452C80.4756+42.1155+80.7155+43.7804+81.1955+45.0398C82.0697+47.3862+83.7152+48.5594+86.1321+48.5594C87.8462+48.5594+89.0633+48.0936+89.7832+47.1619C90.5031+46.2303+90.9402+45.0226+91.0945+43.5389L98.5766+43.5389C98.4052+45.7817+97.5996+47.9038+96.1597+49.9051C93.8628+53.1313+90.4603+54.7444+85.9522+54.7444C81.444+54.7444+78.1272+53.3987+76.0017+50.7073C73.8762+48.0159+72.8135+44.5223+72.8135+40.2264C72.8135+35.3784+73.9876+31.6087+76.336+28.9173C78.6843+26.2259+81.924+24.8802+86.055+24.8802C89.5689+24.8802+92.4444+25.6738+94.6813+27.261C96.9182+28.8483+98.2423+31.6518+98.6537+35.6717L91.1459+35.6717Z" opacity="1" fill="#ffffff"/>
<path d="M103.616+15.7449L110.815+15.7449L110.815+36.2928L119.943+25.6824L129.019+25.6824L119.223+36.4739L129.405+53.761L120.56+53.761L113.849+41.7015L110.815+44.8846L110.815+53.761L103.616+53.761L103.616+15.7449Z" opacity="1" fill="#ffffff"/>
<path d="M163.062+40.0452C162.599+40.3385+162.132+40.5757+161.66+40.7569C161.189+40.938+160.542+41.1062+159.719+41.2615L158.073+41.5721C156.531+41.8481+155.425+42.1845+154.757+42.5813C153.625+43.2542+153.06+44.298+153.06+45.7127C153.06+46.9721+153.407+47.8822+154.101+48.4429C154.795+49.0036+155.639+49.284+156.634+49.284C158.211+49.284+159.663+48.8182+160.992+47.8865C162.32+46.9549+163.01+45.2555+163.062+42.7884L163.062+40.0452ZM158.613+36.6033C159.968+36.4308+160.936+36.2151+161.519+35.9563C162.564+35.5078+163.087+34.809+163.087+33.8602C163.087+32.7042+162.689+31.9063+161.892+31.4664C161.095+31.0264+159.925+30.8064+158.382+30.8064C156.651+30.8064+155.425+31.2378+154.705+32.1004C154.191+32.7387+153.848+33.6014+153.677+34.6883L146.606+34.6883C146.76+32.2212+147.446+30.194+148.663+28.6067C150.6+26.1224+153.925+24.8802+158.639+24.8802C161.707+24.8802+164.433+25.4926+166.815+26.7176C169.198+27.9425+170.389+30.2544+170.389+33.6531L170.389+46.5926C170.389+47.4897+170.407+48.5766+170.441+49.8533C170.492+50.8195+170.638+51.4751+170.878+51.8201C171.118+52.1652+171.478+52.4498+171.958+52.6741L171.958+53.761L163.987+53.761C163.764+53.1917+163.61+52.6569+163.524+52.1565C163.439+51.6562+163.37+51.0869+163.319+50.4485C162.307+51.5527+161.142+52.493+159.822+53.2693C158.245+54.1837+156.462+54.6409+154.474+54.6409C151.937+54.6409+149.841+53.912+148.187+52.4542C146.533+50.9963+145.706+48.9303+145.706+46.2562C145.706+42.7884+147.035+40.2781+149.691+38.7254C151.148+37.88+153.291+37.2762+156.119+36.9139L158.613+36.6033Z" opacity="1" fill="#ffffff"/>
<path d="M174.015+31.0652L174.015+25.8118L177.923+25.8118L177.923+17.9446L185.174+17.9446L185.174+25.8118L189.725+25.8118L189.725+31.0652L185.174+31.0652L185.174+45.9715C185.174+47.1274+185.319+47.8477+185.611+48.1324C185.902+48.417+186.793+48.5594+188.285+48.5594C188.508+48.5594+188.743+48.5551+188.992+48.5464C189.24+48.5378+189.485+48.5249+189.725+48.5076L189.725+54.0198L186.253+54.1492C182.791+54.27+180.426+53.6661+179.157+52.3377C178.334+51.4923+177.923+50.1897+177.923+48.43L177.923+31.0652L174.015+31.0652Z" opacity="1" fill="#ffffff"/>
<path d="M209.651+15.6155L217.699+15.6155L217.699+39.0618C217.699+41.6842+218.007+43.5993+218.625+44.8069C219.584+46.9463+221.676+48.0159+224.898+48.0159C228.104+48.0159+230.186+46.9463+231.146+44.8069C231.763+43.5993+232.072+41.6842+232.072+39.0618L232.072+15.6155L240.12+15.6155L240.12+39.0618C240.12+43.1162+239.494+46.2734+238.243+48.5335C235.911+52.6741+231.463+54.7444+224.898+54.7444C218.333+54.7444+213.876+52.6741+211.528+48.5335C210.277+46.2734+209.651+43.1162+209.651+39.0618L209.651+15.6155Z" opacity="1" fill="#ffffff"/>
<path d="M251.356+19.6009C254.441+16.4609+258.366+14.8909+263.131+14.8909C269.508+14.8909+274.17+16.9957+277.119+21.2054C278.747+23.569+279.621+25.9412+279.741+28.3221L271.822+28.3221C271.308+26.4933+270.648+25.1131+269.842+24.1814C268.402+22.5252+266.268+21.6971+263.44+21.6971C260.56+21.6971+258.289+22.8659+256.626+25.2037C254.964+27.5414+254.132+30.8496+254.132+35.1282C254.132+39.4069+255.011+42.6115+256.768+44.7422C258.525+46.8729+260.757+47.9383+263.466+47.9383C266.243+47.9383+268.36+47.0239+269.817+45.1951C270.622+44.2117+271.291+42.7366+271.822+40.7698L279.664+40.7698C278.978+44.9277+277.226+48.3092+274.406+50.9144C271.586+53.5195+267.974+54.8221+263.569+54.8221C258.118+54.8221+253.832+53.0623+250.713+49.5428C247.593+46.006+246.033+41.158+246.033+34.9988C246.033+28.3393+247.807+23.2067+251.356+19.6009Z" opacity="1" fill="#ffffff"/>
<path d="M292.957+53.761L285.089+53.761L285.089+15.6155L292.957+15.6155L292.957+53.761Z" opacity="1" fill="#ffffff"/>
</g>
</g>
<g id="Layer 2" vectornator:layerName="Layer 2">
<path d="M410+52C410+43.1634+417.163+36+426+36C434.837+36+442+43.1634+442+52C442+60.8366+434.837+68+426+68C417.163+68+410+60.8366+410+52Z" opacity="1" fill="#b933ad"/>
<path d="M376+52C376+43.1634+383.163+36+392+36C400.837+36+408+43.1634+408+52C408+60.8366+400.837+68+392+68C383.163+68+376+60.8366+376+52Z" opacity="1" fill="#0039a6"/>
<path d="M342+52C342+43.1634+349.163+36+358+36C366.837+36+374+43.1634+374+52C374+60.8366+366.837+68+358+68C349.163+68+342+60.8366+342+52Z" opacity="1" fill="#00933c"/>
<path d="M308+52C308+43.1634+315.163+36+324+36C332.837+36+340+43.1634+340+52C340+60.8366+332.837+68+324+68C315.163+68+308+60.8366+308+52Z" opacity="1" fill="#000000"/>
<path d="M410+18C410+9.16344+417.163+2+426+2C434.837+2+442+9.16344+442+18C442+26.8366+434.837+34+426+34C417.163+34+410+26.8366+410+18Z" opacity="1" fill="#FCCC0A"/>
<path d="M376+18C376+9.16344+383.163+2+392+2C400.837+2+408+9.16344+408+18C408+26.8366+400.837+34+392+34C383.163+34+376+26.8366+376+18Z" opacity="1" fill="#ee352e"/>
<path d="M342+18C342+9.16344+349.163+2+358+2C366.837+2+374+9.16344+374+18C374+26.8366+366.837+34+358+34C349.163+34+342+26.8366+342+18Z" opacity="1" fill="#FCCC0A"/>
<path d="M308+18C308+9.16344+315.163+2+324+2C332.837+2+340+9.16344+340+18C340+26.8366+332.837+34+324+34C315.163+34+308+26.8366+308+18Z" opacity="1" fill="#ee352e"/>
</g>
<g id="Layer 3" vectornator:layerName="Layer 3">
<g opacity="1">
<path d="M418.316+41.4136L420.774+52.5521L421.304+55.6535L421.846+52.6181L423.939+41.4136L428.036+41.4136L430.242+52.5521L430.81+55.6535L431.377+52.6709L433.861+41.4136L437.807+41.4136L432.575+60.8665L428.868+60.8665L426.624+49.4904L425.968+45.7291L425.313+49.4904L423.069+60.8665L419.463+60.8665L414.193+41.4136L418.316+41.4136Z" opacity="1" fill="#ffffff"/>
</g>
<g opacity="1">
<path d="M397.163+51.1136C397.163+48.9317+396.711+47.2446+395.808+46.0524C394.904+44.8603+393.683+44.2642+392.145+44.2642C390.607+44.2642+389.38+44.8581+388.464+46.0458C387.547+47.2336+387.089+48.9229+387.089+51.1136C387.089+53.3044+387.547+54.9937+388.464+56.1814C389.38+57.3692+390.607+57.9631+392.145+57.9631C393.683+57.9631+394.904+57.3692+395.808+56.1814C396.711+54.9937+397.163+53.3044+397.163+51.1136ZM398.235+59.1376C396.831+60.6509+394.801+61.4076+392.145+61.4076C389.489+61.4076+387.459+60.6509+386.055+59.1376C384.173+57.2812+383.231+54.6065+383.231+51.1136C383.231+47.5503+384.173+44.8757+386.055+43.0896C387.459+41.5763+389.489+40.8197+392.145+40.8197C394.801+40.8197+396.831+41.5763+398.235+43.0896C400.109+44.8757+401.046+47.5503+401.046+51.1136C401.046+54.6065+400.109+57.2812+398.235+59.1376Z" opacity="1" fill="#ffffff"/>
</g>
<g opacity="1">
<path d="M350.58+41.4136L354.653+41.4136L362.053+54.9937L362.053+41.4136L365.672+41.4136L365.672+60.8665L361.789+60.8665L354.199+47.0488L354.199+60.8665L350.58+60.8665L350.58+41.4136Z" opacity="1" fill="#ffffff"/>
</g>
<g opacity="1"/>
<g opacity="1">
<path d="M425.931+24.2798C426.998+24.2798+427.698+23.6969+428.03+22.5312C428.362+21.3654+428.528+19.6827+428.528+17.4832C428.528+15.178+428.362+13.4712+428.03+12.3626C427.698+11.254+426.998+10.6997+425.931+10.6997C424.863+10.6997+424.157+11.254+423.813+12.3626C423.468+13.4712+423.296+15.178+423.296+17.4832C423.296+19.6827+423.468+21.3654+423.813+22.5312C424.157+23.6969+424.863+24.2798+425.931+24.2798ZM432.235+17.4832C432.235+20.6417+431.766+23.0744+430.829+24.7813C429.892+26.4882+428.259+27.3416+425.931+27.3416C423.602+27.3416+421.97+26.4882+421.033+24.7813C420.095+23.0744+419.627+20.6417+419.627+17.4832C419.627+14.3246+420.095+11.8875+421.033+10.1718C421.97+8.45616+423.602+7.59833+425.931+7.59833C428.259+7.59833+429.892+8.45616+430.829+10.1718C431.766+11.8875+432.235+14.3246+432.235+17.4832Z" opacity="1" fill="#ffffff"/>
</g>
<g opacity="1">
<path d="M386.472+23.1052C386.984+21.8295+388.195+20.479+390.103+19.0536C391.758+17.8131+392.83+16.9245+393.318+16.3878C394.066+15.5519+394.44+14.6369+394.44+13.6427C394.44+12.8333+394.225+12.1602+393.797+11.6235C393.368+11.0868+392.754+10.8185+391.956+10.8185C390.863+10.8185+390.119+11.2452+389.724+12.0986C389.497+12.5913+389.363+13.3744+389.321+14.4478L385.829+14.4478C385.887+12.8201+386.169+11.5047+386.673+10.5017C387.631+8.59253+389.333+7.63792+391.779+7.63792C393.713+7.63792+395.251+8.19881+396.394+9.32058C397.537+10.4424+398.108+11.9271+398.108+13.7747C398.108+15.1912+397.705+16.4494+396.898+17.5491C396.369+18.2794+395.499+19.0932+394.288+19.9907L392.851+21.0596C391.952+21.7283+391.336+22.2122+391.004+22.5114C390.672+22.8105+390.393+23.158+390.166+23.554L398.146+23.554L398.146+26.8665L385.627+26.8665C385.66+25.494+385.942+24.2402+386.472+23.1052Z" opacity="1" fill="#ffffff"/>
</g>
<g opacity="1">
<path d="M357.931+24.2798C358.998+24.2798+359.698+23.6969+360.03+22.5312C360.362+21.3654+360.528+19.6827+360.528+17.4832C360.528+15.178+360.362+13.4712+360.03+12.3626C359.698+11.254+358.998+10.6997+357.931+10.6997C356.863+10.6997+356.157+11.254+355.813+12.3626C355.468+13.4712+355.296+15.178+355.296+17.4832C355.296+19.6827+355.468+21.3654+355.813+22.5312C356.157+23.6969+356.863+24.2798+357.931+24.2798ZM364.235+17.4832C364.235+20.6417+363.766+23.0744+362.829+24.7813C361.892+26.4882+360.259+27.3416+357.931+27.3416C355.602+27.3416+353.97+26.4882+353.033+24.7813C352.095+23.0744+351.627+20.6417+351.627+17.4832C351.627+14.3246+352.095+11.8875+353.033+10.1718C353.97+8.45616+355.602+7.59833+357.931+7.59833C360.259+7.59833+361.892+8.45616+362.829+10.1718C363.766+11.8875+364.235+14.3246+364.235+17.4832Z" opacity="1" fill="#ffffff"/>
</g>
<g opacity="1">
<path d="M318.472+23.1052C318.984+21.8295+320.195+20.479+322.103+19.0536C323.758+17.8131+324.83+16.9245+325.318+16.3878C326.066+15.5519+326.44+14.6369+326.44+13.6427C326.44+12.8333+326.225+12.1602+325.797+11.6235C325.368+11.0868+324.754+10.8185+323.956+10.8185C322.863+10.8185+322.119+11.2452+321.724+12.0986C321.497+12.5913+321.363+13.3744+321.321+14.4478L317.829+14.4478C317.887+12.8201+318.169+11.5047+318.673+10.5017C319.631+8.59253+321.333+7.63792+323.779+7.63792C325.713+7.63792+327.251+8.19881+328.394+9.32058C329.537+10.4424+330.108+11.9271+330.108+13.7747C330.108+15.1912+329.705+16.4494+328.898+17.5491C328.369+18.2794+327.499+19.0932+326.288+19.9907L324.851+21.0596C323.952+21.7283+323.336+22.2122+323.004+22.5114C322.672+22.8105+322.393+23.158+322.166+23.554L330.146+23.554L330.146+26.8665L317.627+26.8665C317.66+25.494+317.942+24.2402+318.472+23.1052Z" opacity="1" fill="#ffffff"/>
</g>
</g>
</svg>
