<?xml version="1.0" encoding="UTF-8" standalone="no"?> <!-- Created with Vectornator for iOS (http://vectornator.io/) --><!DOCTYPE svg PUBLIC "-//W3C//DTD SVG 1.1//EN" "http://www.w3.org/Graphics/SVG/1.1/DTD/svg11.dtd">
<svg height="100%" style="fill-rule:evenodd;clip-rule:evenodd;stroke-linecap:round;stroke-linejoin:round;" xmlns:xlink="http://www.w3.org/1999/xlink" xmlns="http://www.w3.org/2000/svg" xml:space="preserve" width="100%" xmlns:vectornator="http://vectornator.io" version="1.1" viewBox="0 0 450 70">
<metadata>
<vectornator:setting key="DimensionsVisible" value="1"/>
<vectornator:setting key="SnapToGrid" value="1"/>
<vectornator:setting key="SnapToPoints" value="1"/>
<vectornator:setting key="GuidesVisible" value="1"/>
<vectornator:setting key="RulersVisible" value="1"/>
<vectornator:setting key="SnapToEdges" value="1"/>
<vectornator:setting key="DisplayWhiteBackground" value="0"/>
<vectornator:setting key="SnapToGuides" value="1"/>
<vectornator:setting key="GridSpacing" value="36"/>
<vectornator:setting key="Units" value="Pixels"/>
<vectornator:setting key="DynamicGuides" value="1"/>
<vectornator:setting key="New" value="1"/>
</metadata>
<defs/>
<g id="Layer 1" vectornator:layerName="Layer 1">
<path d="M0+0L450+0L450+70L0+70L0+0Z" opacity="1" fill="#000000"/>
<path d="M308+18C308+9.16344+315.163+2+324+2C332.837+2+340+9.16344+340+18C340+26.8366+332.837+34+324+34C315.163+34+308+26.8366+308+18Z" opacity="1" fill="#ee352e"/>
<path d="M342+18C342+9.16344+349.163+2+358+2C366.837+2+374+9.16344+374+18C374+26.8366+366.837+34+358+34C349.163+34+342+26.8366+342+18Z" opacity="1" fill="#fccc0a"/>
<path d="M376+18C376+9.16344+383.163+2+392+2C400.837+2+408+9.16344+408+18C408+26.8366+400.837+34+392+34C383.163+34+376+26.8366+376+18Z" opacity="1" fill="#ee352e"/>
<path d="M410+52C410+43.1634+417.163+36+426+36C434.837+36+442+43.1634+442+52C442+60.8366+434.837+68+426+68C417.163+68+410+60.8366+410+52Z" opacity="1" fill="#000000"/>
<path d="M308+52C308+43.1634+315.163+36+324+36C332.837+36+340+43.1634+340+52C340+60.8366+332.837+68+324+68C315.163+68+308+60.8366+308+52Z" opacity="1" fill="#0039a6"/>
<path d="M342+52C342+43.1634+349.163+36+358+36C366.837+36+374+43.1634+374+52C374+60.8366+366.837+68+358+68C349.163+68+342+60.8366+342+52Z" opacity="1" fill="#808183"/>
<path d="M376+52C376+43.1634+383.163+36+392+36C400.837+36+408+43.1634+408+52C408+60.8366+400.837+68+392+68C383.163+68+376+60.8366+376+52Z" opacity="1" fill="#000000"/>
<path d="M410+18C410+9.16344+417.163+2+426+2C434.837+2+442+9.16344+442+18C442+26.8366+434.837+34+426+34C417.163+34+410+26.8366+410+18Z" opacity="1" fill="#ee352e"/>
<g opacity="1">
<path d="M11.0564+13.2193L21.0781+13.2193L21.0781+42.4166C21.0781+45.6822+21.4624+48.067+22.2308+49.5709C23.4261+52.235+26.0303+53.567+30.0433+53.567C34.0349+53.567+36.6284+52.235+37.8237+49.5709C38.5922+48.067+38.9764+45.6822+38.9764+42.4166L38.9764+13.2193L48.9981+13.2193L48.9981+42.4166C48.9981+47.4654+48.219+51.3971+46.6608+54.2115C43.7578+59.3678+38.2186+61.9459+30.0433+61.9459C21.8679+61.9459+16.3181+59.3678+13.3937+54.2115C11.8355+51.3971+11.0564+47.4654+11.0564+42.4166L11.0564+13.2193Z" opacity="1" fill="#ffffff"/>
<path d="M62.9901+18.1822C66.8324+14.2721+71.7205+12.317+77.6546+12.317C85.5951+12.317+91.4011+14.9381+95.0725+20.1803C97.1004+23.1236+98.189+26.0777+98.3384+29.0426L88.4768+29.0426C87.8364+26.7652+87.0146+25.0465+86.0113+23.8863C84.2183+21.8238+81.5608+20.7926+78.0388+20.7926C74.4527+20.7926+71.6244+22.2481+69.5539+25.1593C67.4834+28.0704+66.4481+32.19+66.4481+37.5182C66.4481+42.8463+67.5421+46.837+69.73+49.4903C71.9179+52.1437+74.6982+53.4703+78.0708+53.4703C81.5288+53.4703+84.1649+52.3316+85.9793+50.0543C86.9826+48.8297+87.815+46.9928+88.4768+44.5436L98.2423+44.5436C97.3885+49.7213+95.2059+53.9322+91.6946+57.1764C88.1832+60.4205+83.6847+62.0426+78.1989+62.0426C71.411+62.0426+66.0746+59.8512+62.1897+55.4684C58.3048+51.0641+56.3624+45.027+56.3624+37.357C56.3624+29.0641+58.5716+22.6725+62.9901+18.1822Z" opacity="1" fill="#ffffff"/>
<path d="M133.014+60.7213L123.217+60.7213L123.217+13.2193L133.014+13.2193L133.014+60.7213Z" opacity="1" fill="#ffffff"/>
<path d="M161.639+24.8209L161.639+34.2311C161.062+34.1666+160.55+34.1236+160.102+34.1021C159.654+34.0807+159.291+34.0699+159.013+34.0699C155.342+34.0699+152.876+35.273+151.617+37.6793C150.913+39.0328+150.56+41.1168+150.56+43.9312L150.56+60.7213L141.371+60.7213L141.371+25.5943L150.08+25.5943L150.08+31.7174C151.489+29.3756+152.716+27.775+153.762+26.9156C155.47+25.4762+157.69+24.7564+160.422+24.7564C160.593+24.7564+160.737+24.7618+160.854+24.7726C160.972+24.7833+161.233+24.7994+161.639+24.8209Z" opacity="1" fill="#ffffff"/>
<path d="M188.502+25.5943L198.3+25.5943L185.716+60.7213L176.079+60.7213L163.56+25.5943L173.806+25.5943L181.074+51.5045L188.502+25.5943Z" opacity="1" fill="#ffffff"/>
<path d="M212.836+21.4049L203.583+21.4049L203.583+12.9293L212.836+12.9293L212.836+21.4049ZM203.583+25.5943L212.836+25.5943L212.836+60.7213L203.583+60.7213L203.583+25.5943Z" opacity="1" fill="#ffffff"/>
<path d="M253.307+37.067L253.307+60.7213L243.958+60.7213L243.958+39.3551C243.958+37.5074+243.712+36.0895+243.221+35.1012C242.325+33.2965+240.617+32.3941+238.098+32.3941C235.003+32.3941+232.879+33.7154+231.727+36.358C231.129+37.7545+230.83+39.5377+230.83+41.7076L230.83+60.7213L221.737+60.7213L221.737+25.6588L230.542+25.6588L230.542+30.7828C231.716+28.9781+232.826+27.6783+233.872+26.8834C235.75+25.4654+238.13+24.7564+241.012+24.7564C244.62+24.7564+247.571+25.7071+249.865+27.6085C252.16+29.5099+253.307+32.6627+253.307+37.067Z" opacity="1" fill="#ffffff"/>
<path d="M268.388+39.6451L282.572+39.6451C282.423+37.2174+281.691+35.3751+280.379+34.1183C279.066+32.8614+277.438+32.233+275.496+32.233C273.383+32.233+271.744+32.899+270.581+34.2311C269.418+35.5631+268.687+37.3678+268.388+39.6451ZM289.104+31.4918C290.47+33.5758+291.356+35.9928+291.761+38.7428C291.996+40.3541+292.092+42.6744+292.049+45.7037L268.164+45.7037C268.292+49.2271+269.391+51.6979+271.462+53.1158C272.721+53.9967+274.237+54.4371+276.008+54.4371C277.887+54.4371+279.413+53.9+280.587+52.8258C281.227+52.2457+281.793+51.44+282.284+50.4088L291.601+50.4088C291.366+52.4928+290.288+54.609+288.367+56.7574C285.379+60.1734+281.195+61.8814+275.816+61.8814C271.376+61.8814+267.459+60.442+264.065+57.5631C260.671+54.6842+258.974+50.0006+258.974+43.5123C258.974+37.4322+260.506+32.7701+263.569+29.526C266.632+26.2818+270.608+24.6598+275.496+24.6598C278.399+24.6598+281.014+25.2076+283.34+26.3033C285.667+27.399+287.588+29.1285+289.104+31.4918Z" opacity="1" fill="#ffffff"/>
</g>
<g opacity="1">
<path d="M318.472+23.1052C318.984+21.8295+320.195+20.479+322.103+19.0536C323.758+17.8131+324.83+16.9245+325.318+16.3878C326.066+15.5519+326.44+14.6369+326.44+13.6427C326.44+12.8333+326.225+12.1602+325.797+11.6235C325.368+11.0868+324.754+10.8185+323.956+10.8185C322.863+10.8185+322.119+11.2452+321.724+12.0986C321.497+12.5913+321.363+13.3744+321.321+14.4478L317.829+14.4478C317.887+12.8201+318.169+11.5047+318.673+10.5017C319.631+8.59253+321.333+7.63792+323.779+7.63792C325.713+7.63792+327.251+8.19881+328.394+9.32058C329.537+10.4424+330.108+11.9271+330.108+13.7747C330.108+15.1912+329.705+16.4494+328.898+17.5491C328.369+18.2794+327.499+19.0932+326.288+19.9907L324.851+21.0596C323.952+21.7283+323.336+22.2122+323.004+22.5114C322.672+22.8105+322.393+23.158+322.166+23.554L330.146+23.554L330.146+26.8665L317.627+26.8665C317.66+25.494+317.942+24.2402+318.472+23.1052Z" opacity="1" fill="#ffffff"/>
</g>
<g opacity="1">
<path d="M208.472-12.8948C208.984-14.1705+210.195-15.521+212.103-16.9464C213.758-18.1869+214.83-19.0755+215.318-19.6122C216.066-20.4481+216.44-21.3631+216.44-22.3573C216.44-23.1667+216.225-23.8398+215.797-24.3765C215.368-24.9132+214.754-25.1815+213.956-25.1815C212.863-25.1815+212.119-24.7548+211.724-23.9014C211.497-23.4087+211.363-22.6256+211.321-21.5522L207.829-21.5522C207.887-23.1799+208.169-24.4953+208.673-25.4983C209.631-27.4075+211.333-28.3621+213.779-28.3621C215.713-28.3621+217.251-27.8012+218.394-26.6794C219.537-25.5576+220.108-24.0729+220.108-22.2253C220.108-20.8088+219.705-19.5506+218.898-18.4509C218.369-17.7206+217.499-16.9068+216.288-16.0093L214.851-14.9404C213.952-14.2717+213.336-13.7878+213.004-13.4886C212.672-13.1895+212.393-12.842+212.166-12.446L220.146-12.446L220.146-9.13351L207.627-9.13351C207.66-10.506+207.942-11.7598+208.472-12.8948Z" opacity="1" fill="#ffffff"/>
</g>
<g opacity="1">
<path d="M386.472+23.1052C386.984+21.8295+388.195+20.479+390.103+19.0536C391.758+17.8131+392.83+16.9245+393.318+16.3878C394.066+15.5519+394.44+14.6369+394.44+13.6427C394.44+12.8333+394.225+12.1602+393.797+11.6235C393.368+11.0868+392.754+10.8185+391.956+10.8185C390.863+10.8185+390.119+11.2452+389.724+12.0986C389.497+12.5913+389.363+13.3744+389.321+14.4478L385.829+14.4478C385.887+12.8201+386.169+11.5047+386.673+10.5017C387.631+8.59253+389.333+7.63792+391.779+7.63792C393.713+7.63792+395.251+8.19881+396.394+9.32058C397.537+10.4424+398.108+11.9271+398.108+13.7747C398.108+15.1912+397.705+16.4494+396.898+17.5491C396.369+18.2794+395.499+19.0932+394.288+19.9907L392.851+21.0596C391.952+21.7283+391.336+22.2122+391.004+22.5114C390.672+22.8105+390.393+23.158+390.166+23.554L398.146+23.554L398.146+26.8665L385.627+26.8665C385.66+25.494+385.942+24.2402+386.472+23.1052Z" opacity="1" fill="#ffffff"/>
</g>
<g opacity="1">
<path d="M420.472+23.1052C420.984+21.8295+422.195+20.479+424.103+19.0536C425.758+17.8131+426.83+16.9245+427.318+16.3878C428.066+15.5519+428.44+14.6369+428.44+13.6427C428.44+12.8333+428.225+12.1602+427.797+11.6235C427.368+11.0868+426.754+10.8185+425.956+10.8185C424.863+10.8185+424.119+11.2452+423.724+12.0986C423.497+12.5913+423.363+13.3744+423.321+14.4478L419.829+14.4478C419.887+12.8201+420.169+11.5047+420.673+10.5017C421.631+8.59253+423.333+7.63792+425.779+7.63792C427.713+7.63792+429.251+8.19881+430.394+9.32058C431.537+10.4424+432.108+11.9271+432.108+13.7747C432.108+15.1912+431.705+16.4494+430.898+17.5491C430.369+18.2794+429.499+19.0932+428.288+19.9907L426.851+21.0596C425.952+21.7283+425.336+22.2122+425.004+22.5114C424.672+22.8105+424.393+23.158+424.166+23.554L432.146+23.554L432.146+26.8665L419.627+26.8665C419.66+25.494+419.942+24.2402+420.472+23.1052Z" opacity="1" fill="#ffffff"/>
</g>
<g opacity="1">
<path d="M318.446+43.446C319.959+41.8447+321.884+41.044+324.221+41.044C327.347+41.044+329.634+42.1174+331.079+44.2642C331.878+45.4696+332.306+46.6793+332.365+47.8935L328.482+47.8935C328.23+46.9609+327.906+46.257+327.511+45.7819C326.805+44.9373+325.759+44.5149+324.372+44.5149C322.96+44.5149+321.846+45.111+321.031+46.3032C320.216+47.4954+319.808+49.1824+319.808+51.3644C319.808+53.5464+320.239+55.1806+321.1+56.2672C321.962+57.3538+323.057+57.8971+324.385+57.8971C325.746+57.8971+326.784+57.4308+327.499+56.4982C327.894+55.9967+328.221+55.2444+328.482+54.2414L332.327+54.2414C331.991+56.3618+331.132+58.0862+329.749+59.4148C328.366+60.7433+326.595+61.4076+324.435+61.4076C321.762+61.4076+319.661+60.5102+318.131+58.7153C316.601+56.9117+315.837+54.4394+315.837+51.2984C315.837+47.9023+316.706+45.2848+318.446+43.446Z" opacity="1" fill="#ffffff"/>
</g>
<g opacity="1">
<path d="M354.167+54.8617C354.285+55.7503+354.516+56.4146+354.861+56.8545C355.491+57.6551+356.571+58.0555+358.101+58.0555C359.017+58.0555+359.761+57.9499+360.332+57.7387C361.417+57.334+361.959+56.5817+361.959+55.482C361.959+54.8397+361.69+54.3426+361.152+53.9907C360.614+53.6475+359.769+53.344+358.618+53.08L356.651+52.6181C354.718+52.1606+353.381+51.6635+352.642+51.1268C351.389+50.2294+350.763+48.8261+350.763+46.9169C350.763+45.1748+351.368+43.7275+352.579+42.5749C353.789+41.4224+355.567+40.8461+357.912+40.8461C359.87+40.8461+361.541+41.3894+362.923+42.476C364.306+43.5625+365.031+45.1396+365.098+47.2072L361.366+47.2072C361.299+46.037+360.812+45.2056+359.904+44.7129C359.299+44.3874+358.546+44.2246+357.647+44.2246C356.647+44.2246+355.848+44.4358+355.252+44.8581C354.655+45.2804+354.356+45.8699+354.356+46.6265C354.356+47.3216+354.651+47.8407+355.239+48.1838C355.617+48.4126+356.424+48.6809+357.66+48.9889L360.862+49.7939C362.266+50.1458+363.325+50.6165+364.039+51.206C365.149+52.121+365.703+53.4452+365.703+55.1784C365.703+56.9557+365.054+58.4316+363.755+59.6061C362.457+60.7807+360.622+61.368+358.252+61.368C355.831+61.368+353.928+60.7895+352.541+59.6325C351.154+58.4756+350.461+56.8853+350.461+54.8617L354.167+54.8617Z" opacity="1" fill="#ffffff"/>
</g>
<g opacity="1"/>
<g opacity="1"/>
<g opacity="1">
<path d="M357.931+24.2798C358.998+24.2798+359.698+23.6969+360.03+22.5312C360.362+21.3654+360.528+19.6827+360.528+17.4832C360.528+15.178+360.362+13.4712+360.03+12.3626C359.698+11.254+358.998+10.6997+357.931+10.6997C356.863+10.6997+356.157+11.254+355.813+12.3626C355.468+13.4712+355.296+15.178+355.296+17.4832C355.296+19.6827+355.468+21.3654+355.813+22.5312C356.157+23.6969+356.863+24.2798+357.931+24.2798ZM364.235+17.4832C364.235+20.6417+363.766+23.0744+362.829+24.7813C361.892+26.4882+360.259+27.3416+357.931+27.3416C355.602+27.3416+353.97+26.4882+353.033+24.7813C352.095+23.0744+351.627+20.6417+351.627+17.4832C351.627+14.3246+352.095+11.8875+353.033+10.1718C353.97+8.45616+355.602+7.59833+357.931+7.59833C360.259+7.59833+361.892+8.45616+362.829+10.1718C363.766+11.8875+364.235+14.3246+364.235+17.4832Z" opacity="1" fill="#ffffff"/>
</g>
</g>
</svg>
