<?xml version="1.0" encoding="UTF-8" standalone="no"?> <!-- Created with Vectornator for iOS (http://vectornator.io/) --><!DOCTYPE svg PUBLIC "-//W3C//DTD SVG 1.1//EN" "http://www.w3.org/Graphics/SVG/1.1/DTD/svg11.dtd">
<svg style="fill-rule:evenodd;clip-rule:evenodd;stroke-linecap:round;stroke-linejoin:round;" xmlns:vectornator="http://vectornator.io" xmlns:xlink="http://www.w3.org/1999/xlink" xmlns="http://www.w3.org/2000/svg" xml:space="preserve" version="1.1" viewBox="0 0 450 70">
<metadata>
<vectornator:setting key="DimensionsVisible" value="1"/>
<vectornator:setting key="DynamicGuides" value="1"/>
<vectornator:setting key="SnapToPoints" value="1"/>
<vectornator:setting key="GuidesVisible" value="1"/>
<vectornator:setting key="RulersVisible" value="1"/>
<vectornator:setting key="CMYKEnabledKey" value="0"/>
<vectornator:setting key="SnapToEdges" value="1"/>
<vectornator:setting key="DisplayWhiteBackground" value="0"/>
<vectornator:setting key="SnapToGuides" value="1"/>
<vectornator:setting key="GridSpacing" value="36"/>
<vectornator:setting key="SnapToGrid" value="1"/>
<vectornator:setting key="Units" value="Pixels"/>
<vectornator:setting key="New" value="1"/>
</metadata>
<defs/>
<g id="Layer 1" vectornator:layerName="Layer 1">
<path d="M0+0L450+0L450+70L0+70L0+0Z" opacity="1" fill="#000000"/>
<g opacity="1">
<path d="M5.81339+22.6097L10.8243+22.6097L10.8243+37.2083C10.8243+38.8411+11.0164+40.0335+11.4006+40.7854C11.9983+42.1175+13.3003+42.7835+15.3068+42.7835C17.3026+42.7835+18.5994+42.1175+19.1971+40.7854C19.5813+40.0335+19.7734+38.8411+19.7734+37.2083L19.7734+22.6097L24.7843+22.6097L24.7843+37.2083C24.7843+39.7327+24.3947+41.6985+23.6156+43.1058C22.1641+45.6839+19.3945+46.9729+15.3068+46.9729C11.2192+46.9729+8.44423+45.6839+6.98206+43.1058C6.20295+41.6985+5.81339+39.7327+5.81339+37.2083L5.81339+22.6097Z" opacity="1" fill="#ffffff"/>
<path d="M31.7803+25.0911C33.7014+23.136+36.1454+22.1585+39.1125+22.1585C43.0827+22.1585+45.9857+23.469+47.8215+26.0901C48.8354+27.5618+49.3797+29.0389+49.4544+30.5213L44.5236+30.5213C44.2034+29.3826+43.7925+28.5232+43.2909+27.9432C42.3943+26.9119+41.0656+26.3963+39.3046+26.3963C37.5116+26.3963+36.0974+27.1241+35.0621+28.5796C34.0269+30.0352+33.5093+32.095+33.5093+34.7591C33.5093+37.4231+34.0562+39.4185+35.1502+40.7452C36.2442+42.0718+37.6343+42.7352+39.3206+42.7352C41.0496+42.7352+42.3677+42.1658+43.2749+41.0271C43.7765+40.4148+44.1927+39.4964+44.5236+38.2718L49.4064+38.2718C48.9795+40.8606+47.8882+42.9661+46.1325+44.5882C44.3768+46.2103+42.1275+47.0213+39.3846+47.0213C35.9907+47.0213+33.3225+45.9256+31.38+43.7342C29.4376+41.532+28.4664+38.5135+28.4664+34.6785C28.4664+30.532+29.571+27.3362+31.7803+25.0911Z" opacity="1" fill="#ffffff"/>
<path d="M57.6831+46.3606L52.7843+46.3606L52.7843+22.6097L57.6831+22.6097L57.6831+46.3606Z" opacity="1" fill="#ffffff"/>
<path d="M88.837+26.8152L76.3498+26.8152L76.3498+31.8587L87.8124+31.8587L87.8124+35.9837L76.3498+35.9837L76.3498+42.0906L89.4133+42.0906L89.4133+46.3606L71.531+46.3606L71.531+22.6097L88.837+22.6097L88.837+26.8152Z" opacity="1" fill="#ffffff"/>
<path d="M102.509+37.8206C102.221+38.0032+101.93+38.1509+101.636+38.2637C101.343+38.3765+100.94+38.4812+100.428+38.5779L99.403+38.7713C98.4425+38.9432+97.7541+39.1526+97.3378+39.3997C96.6334+39.8187+96.2812+40.4686+96.2812+41.3494C96.2812+42.1336+96.4973+42.7002+96.9296+43.0494C97.3618+43.3985+97.8875+43.573+98.5065+43.573C99.4884+43.573+100.393+43.283+101.22+42.7029C102.047+42.1229+102.477+41.0647+102.509+39.5286L102.509+37.8206ZM99.7392+35.6775C100.582+35.5701+101.185+35.4358+101.548+35.2747C102.199+34.9954+102.525+34.5604+102.525+33.9695C102.525+33.2498+102.277+32.753+101.78+32.4791C101.284+32.2051+100.556+32.0682+99.5951+32.0682C98.5172+32.0682+97.7541+32.3367+97.3058+32.8738C96.9856+33.2713+96.7722+33.8084+96.6654+34.4852L92.2629+34.4852C92.359+32.949+92.7859+31.6868+93.5437+30.6985C94.7497+29.1517+96.8202+28.3782+99.7552+28.3782C101.666+28.3782+103.363+28.7596+104.846+29.5223C106.33+30.285+107.071+31.7244+107.071+33.8406L107.071+41.8973C107.071+42.4559+107.082+43.1326+107.103+43.9275C107.135+44.5291+107.226+44.9373+107.376+45.1521C107.525+45.367+107.749+45.5442+108.048+45.6839L108.048+46.3606L103.085+46.3606C102.946+46.0062+102.85+45.6731+102.797+45.3616C102.744+45.0501+102.701+44.6956+102.669+44.2981C102.039+44.9856+101.313+45.5711+100.492+46.0545C99.5097+46.6238+98.3998+46.9085+97.1617+46.9085C95.5822+46.9085+94.2774+46.4546+93.2475+45.5469C92.2176+44.6392+91.7026+43.3528+91.7026+41.6878C91.7026+39.5286+92.5297+37.9656+94.184+36.9988C95.0912+36.4725+96.4253+36.0965+98.1863+35.8709L99.7392+35.6775Z" opacity="1" fill="#ffffff"/>
<path d="M121.208+28.4104L121.208+33.1155C120.919+33.0833+120.663+33.0618+120.439+33.0511C120.215+33.0403+120.033+33.035+119.895+33.035C118.059+33.035+116.826+33.6365+116.197+34.8396C115.844+35.5164+115.668+36.5584+115.668+37.9656L115.668+46.3606L111.074+46.3606L111.074+28.7972L115.428+28.7972L115.428+31.8587C116.133+30.6878+116.746+29.8875+117.269+29.4578C118.123+28.7381+119.233+28.3782+120.599+28.3782C120.685+28.3782+120.757+28.3809+120.815+28.3863C120.874+28.3917+121.005+28.3997+121.208+28.4104Z" opacity="1" fill="#ffffff"/>
<path d="M122.088+32.2293L122.088+28.9583L124.521+28.9583L124.521+24.0599L129.036+24.0599L129.036+28.9583L131.87+28.9583L131.87+32.2293L129.036+32.2293L129.036+41.5105C129.036+42.2303+129.127+42.6788+129.308+42.856C129.49+43.0333+130.045+43.1219+130.973+43.1219C131.112+43.1219+131.259+43.1192+131.413+43.1138C131.568+43.1084+131.72+43.1004+131.87+43.0896L131.87+46.5218L129.708+46.6023C127.552+46.6775+126.08+46.3016+125.29+45.4744C124.778+44.948+124.521+44.137+124.521+43.0413L124.521+32.2293L122.088+32.2293Z" opacity="1" fill="#ffffff"/>
<path d="M149.528+30.6341C150.008+31.2894+150.302+31.9634+150.408+32.6563C150.515+33.3492+150.568+34.4798+150.568+36.0481L150.568+46.3606L145.91+46.3606L145.91+35.6775C145.91+34.7322+145.75+33.9695+145.429+33.3895C145.013+32.573+144.223+32.1648+143.06+32.1648C141.854+32.1648+140.939+32.5704+140.314+33.3814C139.69+34.1924+139.378+35.3499+139.378+36.8538L139.378+46.3606L134.831+46.3606L134.831+22.6902L139.378+22.6902L139.378+31.0853C140.04+30.0647+140.805+29.3531+141.675+28.9502C142.545+28.5474+143.46+28.346+144.421+28.346C145.499+28.346+146.478+28.534+147.358+28.91C148.239+29.2859+148.962+29.8606+149.528+30.6341Z" opacity="1" fill="#ffffff"/>
<path d="M167.874+39.0291C168.024+40.1141+168.317+40.9251+168.755+41.4622C169.555+42.4397+170.927+42.9285+172.869+42.9285C174.032+42.9285+174.977+42.7996+175.703+42.5418C177.08+42.0477+177.768+41.1292+177.768+39.7864C177.768+39.0022+177.426+38.3953+176.743+37.9656C176.06+37.5467+174.988+37.1761+173.525+36.8538L171.028+36.2898C168.573+35.7312+166.876+35.1243+165.937+34.469C164.347+33.3733+163.552+31.66+163.552+29.3289C163.552+27.202+164.32+25.4349+165.857+24.0276C167.394+22.6204+169.651+21.9168+172.629+21.9168C175.116+21.9168+177.237+22.5801+178.993+23.9068C180.748+25.2334+181.669+27.159+181.754+29.6834L177.015+29.6834C176.93+28.2547+176.311+27.2396+175.158+26.638C174.39+26.2405+173.435+26.0418+172.293+26.0418C171.023+26.0418+170.009+26.2996+169.251+26.8152C168.493+27.3309+168.114+28.0506+168.114+28.9744C168.114+29.823+168.488+30.4568+169.235+30.8758C169.715+31.1551+170.74+31.4827+172.309+31.8587L176.375+32.8416C178.157+33.2713+179.502+33.846+180.409+34.5657C181.818+35.6829+182.523+37.2996+182.523+39.4158C182.523+41.5857+181.698+43.3877+180.049+44.8218C178.4+46.2559+176.071+46.9729+173.061+46.9729C169.987+46.9729+167.57+46.2667+165.809+44.8541C164.048+43.4415+163.168+41.4998+163.168+39.0291L167.874+39.0291Z" opacity="1" fill="#ffffff"/>
<path d="M186.509+49.7283L187.085+49.7605C187.534+49.782+187.96+49.7659+188.366+49.7122C188.772+49.6585+189.113+49.535+189.391+49.3416C189.657+49.159+189.906+48.7776+190.135+48.1976C190.364+47.6175+190.458+47.263+190.415+47.1341L184.011+28.7972L189.086+28.7972L192.897+41.7522L196.499+28.7972L201.349+28.7972L195.362+46.0706C194.209+49.4007+193.297+51.4659+192.624+52.2662C191.952+53.0665+190.607+53.4666+188.59+53.4666C188.185+53.4666+187.859+53.4639+187.614+53.4585C187.368+53.4532+187+53.4344+186.509+53.4021L186.509+49.7283Z" opacity="1" fill="#ffffff"/>
<path d="M207.593+40.7532C207.689+41.5696+207.897+42.1497+208.217+42.4935C208.783+43.1058+209.829+43.4119+211.355+43.4119C212.252+43.4119+212.964+43.2776+213.492+43.0091C214.021+42.7405+214.285+42.3377+214.285+41.8006C214.285+41.285+214.071+40.8929+213.644+40.6243C213.218+40.3558+211.633+39.8938+208.89+39.2386C206.915+38.7444+205.522+38.1268+204.711+37.3855C203.9+36.6551+203.495+35.6023+203.495+34.2273C203.495+32.6053+204.127+31.2115+205.392+30.0459C206.656+28.8804+208.436+28.2977+210.731+28.2977C212.908+28.2977+214.682+28.7354+216.054+29.6109C217.425+30.4864+218.212+31.9983+218.415+34.1468L213.853+34.1468C213.789+33.556+213.623+33.0887+213.356+32.7449C212.855+32.1219+212.001+31.8104+210.795+31.8104C209.802+31.8104+209.095+31.9661+208.674+32.2776C208.252+32.5892+208.041+32.9544+208.041+33.3733C208.041+33.8997+208.265+34.2811+208.714+34.5174C209.162+34.7645+210.747+35.1888+213.468+35.7903C215.283+36.22+216.644+36.8699+217.551+37.74C218.447+38.6209+218.895+39.722+218.895+41.0433C218.895+42.7835+218.252+44.2042+216.966+45.3052C215.68+46.4063+213.692+46.9568+211.003+46.9568C208.26+46.9568+206.235+46.3741+204.927+45.2085C203.62+44.043+202.966+42.5579+202.966+40.7532L207.593+40.7532Z" opacity="1" fill="#ffffff"/>
<path d="M220.48+32.2293L220.48+28.9583L222.914+28.9583L222.914+24.0599L227.428+24.0599L227.428+28.9583L230.262+28.9583L230.262+32.2293L227.428+32.2293L227.428+41.5105C227.428+42.2303+227.519+42.6788+227.701+42.856C227.882+43.0333+228.437+43.1219+229.365+43.1219C229.504+43.1219+229.651+43.1192+229.806+43.1138C229.96+43.1084+230.113+43.1004+230.262+43.0896L230.262+46.5218L228.101+46.6023C225.945+46.6775+224.472+46.3016+223.682+45.4744C223.17+44.948+222.914+44.137+222.914+43.0413L222.914+32.2293L220.48+32.2293Z" opacity="1" fill="#ffffff"/>
<path d="M236.522+35.8226L243.614+35.8226C243.539+34.6087+243.173+33.6875+242.517+33.0591C241.861+32.4307+241.047+32.1165+240.076+32.1165C239.019+32.1165+238.2+32.4495+237.618+33.1155C237.037+33.7815+236.671+34.6839+236.522+35.8226ZM246.88+31.7459C247.563+32.7879+248.005+33.9964+248.208+35.3714C248.326+36.1771+248.374+37.3372+248.352+38.8519L236.41+38.8519C236.474+40.6136+237.023+41.8489+238.058+42.5579C238.688+42.9983+239.446+43.2186+240.332+43.2186C241.271+43.2186+242.034+42.95+242.621+42.4129C242.941+42.1229+243.224+41.72+243.47+41.2044L248.128+41.2044C248.011+42.2464+247.472+43.3045+246.511+44.3787C245.017+46.0867+242.925+46.9407+240.236+46.9407C238.016+46.9407+236.057+46.221+234.36+44.7815C232.663+43.3421+231.815+41.0003+231.815+37.7562C231.815+34.7161+232.581+32.3851+234.112+30.763C235.644+29.1409+237.632+28.3299+240.076+28.3299C241.527+28.3299+242.835+28.6038+243.998+29.1517C245.161+29.6995+246.122+30.5643+246.88+31.7459Z" opacity="1" fill="#ffffff"/>
<path d="M275.232+30.4407C275.723+31.053+276.054+31.805+276.224+32.6966C276.331+33.2874+276.384+34.1521+276.384+35.2908L276.352+46.3606L271.678+46.3606L271.678+35.178C271.678+34.512+271.571+33.9642+271.358+33.5345C270.952+32.7181+270.205+32.3099+269.116+32.3099C267.857+32.3099+266.987+32.8362+266.507+33.889C266.261+34.4476+266.139+35.1189+266.139+35.9031L266.139+46.3606L261.544+46.3606L261.544+35.9031C261.544+34.8611+261.437+34.1038+261.224+33.6312C260.84+32.7825+260.087+32.3582+258.966+32.3582C257.664+32.3582+256.789+32.7825+256.341+33.6312C256.095+34.1146+255.973+34.8343+255.973+35.7903L255.973+46.3606L251.346+46.3606L251.346+28.8294L255.781+28.8294L255.781+31.3914C256.346+30.4783+256.88+29.8284+257.382+29.4417C258.267+28.7542+259.415+28.4104+260.823+28.4104C262.158+28.4104+263.236+28.7059+264.057+29.2967C264.719+29.8445+265.221+30.5481+265.562+31.4075C266.16+30.3763+266.902+29.6189+267.787+29.1355C268.727+28.6521+269.773+28.4104+270.925+28.4104C271.694+28.4104+272.451+28.5608+273.199+28.8616C273.946+29.1624+274.623+29.6888+275.232+30.4407Z" opacity="1" fill="#ffffff"/>
<path d="M284.133+40.7532C284.229+41.5696+284.437+42.1497+284.757+42.4935C285.323+43.1058+286.369+43.4119+287.895+43.4119C288.792+43.4119+289.504+43.2776+290.032+43.0091C290.561+42.7405+290.825+42.3377+290.825+41.8006C290.825+41.285+290.611+40.8929+290.184+40.6243C289.757+40.3558+288.172+39.8938+285.43+39.2386C283.455+38.7444+282.062+38.1268+281.251+37.3855C280.44+36.6551+280.034+35.6023+280.034+34.2273C280.034+32.6053+280.667+31.2115+281.932+30.0459C283.196+28.8804+284.976+28.2977+287.271+28.2977C289.448+28.2977+291.222+28.7354+292.594+29.6109C293.965+30.4864+294.752+31.9983+294.955+34.1468L290.392+34.1468C290.328+33.556+290.163+33.0887+289.896+32.7449C289.395+32.1219+288.541+31.8104+287.335+31.8104C286.342+31.8104+285.635+31.9661+285.213+32.2776C284.792+32.5892+284.581+32.9544+284.581+33.3733C284.581+33.8997+284.805+34.2811+285.253+34.5174C285.702+34.7645+287.287+35.1888+290.008+35.7903C291.823+36.22+293.183+36.8699+294.091+37.74C294.987+38.6209+295.435+39.722+295.435+41.0433C295.435+42.7835+294.792+44.2042+293.506+45.3052C292.22+46.4063+290.232+46.9568+287.543+46.9568C284.8+46.9568+282.775+46.3741+281.467+45.2085C280.16+44.043+279.506+42.5579+279.506+40.7532L284.133+40.7532Z" opacity="1" fill="#ffffff"/>
</g>
</g>
<g id="Layer 2" vectornator:layerName="Layer 2">
<path d="M410+52C410+43.1634+417.163+36+426+36C434.837+36+442+43.1634+442+52C442+60.8366+434.837+68+426+68C417.163+68+410+60.8366+410+52Z" opacity="1" fill="#808183"/>
<path d="M376+52C376+43.1634+383.163+36+392+36C400.837+36+408+43.1634+408+52C408+60.8366+400.837+68+392+68C383.163+68+376+60.8366+376+52Z" opacity="1" fill="#6CBE45"/>
<path d="M342+52C342+43.1634+349.163+36+358+36C366.837+36+374+43.1634+374+52C374+60.8366+366.837+68+358+68C349.163+68+342+60.8366+342+52Z" opacity="1" fill="#fccc0a"/>
<path d="M308+52C308+43.1634+315.163+36+324+36C332.837+36+340+43.1634+340+52C340+60.8366+332.837+68+324+68C315.163+68+308+60.8366+308+52Z" opacity="1" fill="#ee352e"/>
<path d="M410+18C410+9.16344+417.163+2+426+2C434.837+2+442+9.16344+442+18C442+26.8366+434.837+34+426+34C417.163+34+410+26.8366+410+18Z" opacity="1" fill="#0039a6"/>
<path d="M376+18C376+9.16344+383.163+2+392+2C400.837+2+408+9.16344+408+18C408+26.8366+400.837+34+392+34C383.163+34+376+26.8366+376+18Z" opacity="1" fill="#B933AD"/>
<path d="M342+18C342+9.16344+349.163+2+358+2C366.837+2+374+9.16344+374+18C374+26.8366+366.837+34+358+34C349.163+34+342+26.8366+342+18Z" opacity="1" fill="#fccc0a"/>
<path d="M308+18C308+9.16344+315.163+2+324+2C332.837+2+340+9.16344+340+18C340+26.8366+332.837+34+324+34C315.163+34+308+26.8366+308+18Z" opacity="1" fill="#ee352e"/>
</g>
<g id="Layer 3" vectornator:layerName="Layer 3">
<g opacity="1">
<path d="M425.931+58.2798C426.998+58.2798+427.698+57.6969+428.03+56.5312C428.362+55.3654+428.528+53.6827+428.528+51.4832C428.528+49.178+428.362+47.4712+428.03+46.3626C427.698+45.254+426.998+44.6997+425.931+44.6997C424.863+44.6997+424.157+45.254+423.813+46.3626C423.468+47.4712+423.296+49.178+423.296+51.4832C423.296+53.6827+423.468+55.3654+423.813+56.5312C424.157+57.6969+424.863+58.2798+425.931+58.2798ZM432.235+51.4832C432.235+54.6417+431.766+57.0744+430.829+58.7813C429.892+60.4882+428.259+61.3416+425.931+61.3416C423.602+61.3416+421.97+60.4882+421.033+58.7813C420.095+57.0744+419.627+54.6417+419.627+51.4832C419.627+48.3246+420.095+45.8875+421.033+44.1718C421.97+42.4562+423.602+41.5983+425.931+41.5983C428.259+41.5983+429.892+42.4562+430.829+44.1718C431.766+45.8875+432.235+48.3246+432.235+51.4832Z" opacity="1" fill="#ffffff"/>
</g>
<g opacity="1">
<path d="M386.472+57.1052C386.984+55.8295+388.195+54.479+390.103+53.0536C391.758+51.8131+392.83+50.9245+393.318+50.3878C394.066+49.5519+394.44+48.6369+394.44+47.6427C394.44+46.8333+394.225+46.1602+393.797+45.6235C393.368+45.0868+392.754+44.8185+391.956+44.8185C390.863+44.8185+390.119+45.2452+389.724+46.0986C389.497+46.5913+389.363+47.3744+389.321+48.4478L385.829+48.4478C385.887+46.8201+386.169+45.5047+386.673+44.5017C387.631+42.5925+389.333+41.6379+391.779+41.6379C393.713+41.6379+395.251+42.1988+396.394+43.3206C397.537+44.4424+398.108+45.9271+398.108+47.7747C398.108+49.1912+397.705+50.4494+396.898+51.5491C396.369+52.2794+395.499+53.0932+394.288+53.9907L392.851+55.0596C391.952+55.7283+391.336+56.2122+391.004+56.5114C390.672+56.8105+390.393+57.158+390.166+57.554L398.146+57.554L398.146+60.8665L385.627+60.8665C385.66+59.494+385.942+58.2402+386.472+57.1052Z" opacity="1" fill="#ffffff"/>
</g>
<g opacity="1">
<path d="M357.931+58.2798C358.998+58.2798+359.698+57.6969+360.03+56.5312C360.362+55.3654+360.528+53.6827+360.528+51.4832C360.528+49.178+360.362+47.4712+360.03+46.3626C359.698+45.254+358.998+44.6997+357.931+44.6997C356.863+44.6997+356.157+45.254+355.813+46.3626C355.468+47.4712+355.296+49.178+355.296+51.4832C355.296+53.6827+355.468+55.3654+355.813+56.5312C356.157+57.6969+356.863+58.2798+357.931+58.2798ZM364.235+51.4832C364.235+54.6417+363.766+57.0744+362.829+58.7813C361.892+60.4882+360.259+61.3416+357.931+61.3416C355.602+61.3416+353.97+60.4882+353.033+58.7813C352.095+57.0744+351.627+54.6417+351.627+51.4832C351.627+48.3246+352.095+45.8875+353.033+44.1718C353.97+42.4562+355.602+41.5983+357.931+41.5983C360.259+41.5983+361.892+42.4562+362.829+44.1718C363.766+45.8875+364.235+48.3246+364.235+51.4832Z" opacity="1" fill="#ffffff"/>
</g>
<g opacity="1">
<path d="M318.472+57.1052C318.984+55.8295+320.195+54.479+322.103+53.0536C323.758+51.8131+324.83+50.9245+325.318+50.3878C326.066+49.5519+326.44+48.6369+326.44+47.6427C326.44+46.8333+326.225+46.1602+325.797+45.6235C325.368+45.0868+324.754+44.8185+323.956+44.8185C322.863+44.8185+322.119+45.2452+321.724+46.0986C321.497+46.5913+321.363+47.3744+321.321+48.4478L317.829+48.4478C317.887+46.8201+318.169+45.5047+318.673+44.5017C319.631+42.5925+321.333+41.6379+323.779+41.6379C325.713+41.6379+327.251+42.1988+328.394+43.3206C329.537+44.4424+330.108+45.9271+330.108+47.7747C330.108+49.1912+329.705+50.4494+328.898+51.5491C328.369+52.2794+327.499+53.0932+326.288+53.9907L324.851+55.0596C323.952+55.7283+323.336+56.2122+323.004+56.5114C322.672+56.8105+322.393+57.158+322.166+57.554L330.146+57.554L330.146+60.8665L317.627+60.8665C317.66+59.494+317.942+58.2402+318.472+57.1052Z" opacity="1" fill="#ffffff"/>
</g>
<g opacity="1">
<path d="M425.691+7.57193C428.473+7.57193+430.381+8.86088+431.415+11.4388C432.003+12.8993+432.298+14.8217+432.298+17.206C432.298+19.52+432.016+21.4512+431.453+22.9997C430.377+25.9471+428.402+27.4208+425.527+27.4208C424.157+27.4208+422.926+26.9963+421.833+26.1472C420.74+25.2982+420.114+24.0599+419.955+22.4322L423.535+22.4322C423.619+22.9953+423.846+23.4528+424.216+23.8047C424.586+24.1566+425.078+24.3326+425.691+24.3326C426.876+24.3326+427.708+23.6463+428.187+22.2738C428.448+21.5172+428.612+20.413+428.679+18.9613C428.351+19.3924+428.003+19.7223+427.633+19.9511C426.96+20.3734+426.132+20.5845+425.149+20.5845C423.695+20.5845+422.405+20.0588+421.278+19.0075C420.152+17.9561+419.589+16.4406+419.589+14.461C419.589+12.411+420.154+10.7503+421.285+9.47895C422.415+8.20761+423.884+7.57193+425.691+7.57193ZM427.33+17.074C428.145+16.5286+428.553+15.5827+428.553+14.2366C428.553+13.1544+428.311+12.2966+427.828+11.6631C427.345+11.0296+426.683+10.7129+425.842+10.7129C425.229+10.7129+424.704+10.8933+424.266+11.254C423.577+11.8171+423.233+12.7717+423.233+14.1178C423.233+15.2528+423.453+16.104+423.895+16.6715C424.336+17.239+425.014+17.5228+425.931+17.5228C426.427+17.5228+426.893+17.3732+427.33+17.074Z" opacity="1" fill="#ffffff"/>
</g>
<g opacity="1">
<path d="M386.61+13.6691L386.61+11.1088C387.745+11.056+388.539+10.9769+388.993+10.8713C389.716+10.7041+390.304+10.3698+390.758+9.86828C391.069+9.52514+391.304+9.06763+391.464+8.49575C391.557+8.15262+391.603+7.89747+391.603+7.7303L394.591+7.7303L394.591+26.8665L390.909+26.8665L390.909+13.6691L386.61+13.6691Z" opacity="1" fill="#ffffff"/>
</g>
<g opacity="1">
<path d="M357.931+24.2798C358.998+24.2798+359.698+23.6969+360.03+22.5312C360.362+21.3654+360.528+19.6827+360.528+17.4832C360.528+15.178+360.362+13.4712+360.03+12.3626C359.698+11.254+358.998+10.6997+357.931+10.6997C356.863+10.6997+356.157+11.254+355.813+12.3626C355.468+13.4712+355.296+15.178+355.296+17.4832C355.296+19.6827+355.468+21.3654+355.813+22.5312C356.157+23.6969+356.863+24.2798+357.931+24.2798ZM364.235+17.4832C364.235+20.6417+363.766+23.0744+362.829+24.7813C361.892+26.4882+360.259+27.3416+357.931+27.3416C355.602+27.3416+353.97+26.4882+353.033+24.7813C352.095+23.0744+351.627+20.6417+351.627+17.4832C351.627+14.3246+352.095+11.8875+353.033+10.1718C353.97+8.45616+355.602+7.59833+357.931+7.59833C360.259+7.59833+361.892+8.45616+362.829+10.1718C363.766+11.8875+364.235+14.3246+364.235+17.4832Z" opacity="1" fill="#ffffff"/>
</g>
<g opacity="1">
<path d="M318.472+23.1052C318.984+21.8295+320.195+20.479+322.103+19.0536C323.758+17.8131+324.83+16.9245+325.318+16.3878C326.066+15.5519+326.44+14.6369+326.44+13.6427C326.44+12.8333+326.225+12.1602+325.797+11.6235C325.368+11.0868+324.754+10.8185+323.956+10.8185C322.863+10.8185+322.119+11.2452+321.724+12.0986C321.497+12.5913+321.363+13.3744+321.321+14.4478L317.829+14.4478C317.887+12.8201+318.169+11.5047+318.673+10.5017C319.631+8.59253+321.333+7.63792+323.779+7.63792C325.713+7.63792+327.251+8.19881+328.394+9.32058C329.537+10.4424+330.108+11.9271+330.108+13.7747C330.108+15.1912+329.705+16.4494+328.898+17.5491C328.369+18.2794+327.499+19.0932+326.288+19.9907L324.851+21.0596C323.952+21.7283+323.336+22.2122+323.004+22.5114C322.672+22.8105+322.393+23.158+322.166+23.554L330.146+23.554L330.146+26.8665L317.627+26.8665C317.66+25.494+317.942+24.2402+318.472+23.1052Z" opacity="1" fill="#ffffff"/>
</g>
</g>
</svg>
